<svg xmlns="http://www.w3.org/2000/svg" version="1.1" xmlns:xlink="http://www.w3.org/1999/xlink" xmlns:svgjs="http://svgjs.dev/svgjs" width="2000" height="1247" viewBox="0 0 2000 1247"><g transform="matrix(1,0,0,1,-1.2121212121212466,0.504858299595071)"><svg viewBox="0 0 396 247" data-background-color="#182524" preserveAspectRatio="xMidYMid meet" height="1247" width="2000" xmlns="http://www.w3.org/2000/svg" xmlns:xlink="http://www.w3.org/1999/xlink"><g id="tight-bounds" transform="matrix(1,0,0,1,0.2400000000000091,-0.09999999999999432)"><svg viewBox="0 0 395.52 247.2" height="247.2" width="395.52"><g><svg></svg></g><g><svg viewBox="0 0 395.52 247.2" height="247.2" width="395.52"><g transform="matrix(1,0,0,1,145.36290130246022,47.21520000000001)"><svg viewBox="0 0 104.79419739507958 152.76959999999997" height="152.76959999999997" width="104.79419739507958"><g><svg viewBox="0 0 104.79419739507958 152.76959999999997" height="152.76959999999997" width="104.79419739507958"><g><svg viewBox="0 0 104.79419739507958 152.76959999999997" height="152.76959999999997" width="104.79419739507958"><g><svg viewBox="0 0 104.79419739507958 152.76959999999997" height="152.76959999999997" width="104.79419739507958"><g id="textblocktransform"><svg viewBox="0 0 104.79419739507958 152.76959999999997" height="152.76959999999997" width="104.79419739507958" id="textblock"><g><svg viewBox="0 0 104.79419739507958 152.76959999999997" height="152.76959999999997" width="104.79419739507958"><g transform="matrix(1,0,0,1,0,0)"><svg width="104.79419739507958" viewBox="3.75 -34.55 23.7 34.55" height="152.76959999999997" data-palette-color="#8eecd7"><path d="M13.45-14.05L8.05-14.05 8.05 0 3.75 0 3.75-34.55 12.85-34.55Q17.95-34.55 21.3-31.83 24.65-29.1 24.65-24.25L24.65-24.25Q24.65-20.75 22.8-18.32 20.95-15.9 17.8-14.8L17.8-14.8Q20.4-11.8 27.45 0L27.45 0 22.25 0Q15.3-12 13.45-14.05L13.45-14.05ZM8.05-30.75L8.05-17.75 12.85-17.75Q16.3-17.75 18.18-19.45 20.05-21.15 20.05-24.25 20.05-27.35 18.18-29.05 16.3-30.75 12.85-30.75L12.85-30.75 8.05-30.75Z" opacity="1" transform="matrix(1,0,0,1,0,0)" fill="#8eecd7" class="wordmark-text-0" data-fill-palette-color="primary" id="text-0"></path></svg></g></svg></g></svg></g></svg></g></svg></g></svg></g></svg></g><g><path d="M175.997 0c30.402 0 58.24 10.976 79.768 29.183l-11.147 0c-19.26-14.022-42.974-22.294-68.621-22.295-25.647 0-49.361 8.272-68.621 22.295l-11.147 0c21.528-18.206 49.366-29.183 79.768-29.183zM175.997 247.2c-30.402 0-58.24-10.976-79.768-29.183h11.147c19.26 14.022 42.974 22.294 68.621 22.295 25.647 0 49.361-8.272 68.621-22.295h11.147c-21.528 18.206-49.366 29.183-79.768 29.183z" fill="#8eecd7" stroke="transparent" data-fill-palette-color="tertiary"></path></g></svg></g><defs></defs></svg><rect width="395.52" height="247.2" fill="none" stroke="none" visibility="hidden"></rect></g></svg></g></svg>