{
	"asset":{
		"generator":"Khronos glTF Blender I/O v4.0.44",
		"version":"2.0"
	},
	"scene":0,
	"scenes":[
		{
			"name":"Scene",
			"nodes":[
				0,
				1,
				2,
				3,
				4,
				5,
				6
			]
		}
	],
	"nodes":[
		{
			"mesh":0,
			"name":"Cube",
			"translation":[
				-1.9067975282669067,
				1.042101263999939,
				2.288429021835327
			]
		},
		{
			"mesh":1,
			"name":"Cube.001",
			"translation":[
				-1.9067975282669067,
				1.042101263999939,
				2.288429021835327
			]
		},
		{
			"mesh":2,
			"name":"Cylinder",
			"rotation":[
				0.7071068286895752,
				0,
				0,
				0.7071068286895752
			],
			"scale":[
				0.45436590909957886,
				0.45436590909957886,
				0.45436590909957886
			],
			"translation":[
				-1.9067975282669067,
				1.486971139907837,
				2.7477362155914307
			]
		},
		{
			"mesh":3,
			"name":"Cylinder.001",
			"rotation":[
				0.7071068286895752,
				0,
				0,
				0.7071067690849304
			],
			"scale":[
				0.44281911849975586,
				0.44281911849975586,
				0.44281911849975586
			],
			"translation":[
				-1.9067975282669067,
				1.486971139907837,
				2.7477362155914307
			]
		},
		{
			"mesh":4,
			"name":"Cube.002",
			"scale":[
				0.3454338014125824,
				0.3454338014125824,
				0.035100892186164856
			],
			"translation":[
				-2.7829723358154297,
				0.5306599736213684,
				2.288429021835327
			]
		},
		{
			"mesh":5,
			"name":"Cube.003",
			"rotation":[
				0,
				0.7071068286895752,
				0,
				0.7071068286895752
			],
			"scale":[
				0.3454338014125824,
				0.3454338014125824,
				0.035100892186164856
			],
			"translation":[
				-1.9067975282669067,
				0.32080012559890747,
				2.291795492172241
			]
		},
		{
			"mesh":6,
			"name":"Cube.004",
			"scale":[
				0.3029041886329651,
				0.3029041886329651,
				0.3029041886329651
			],
			"translation":[
				-1.9067975282669067,
				-0.7563797831535339,
				2.288429021835327
			]
		}
	],
	"materials":[
		{
			"doubleSided":true,
			"name":"Material.007",
			"pbrMetallicRoughness":{
				"baseColorFactor":[
					0.6013985872268677,
					0.6351041793823242,
					0.5993894338607788,
					1
				],
				"metallicFactor":0.45490196347236633,
				"roughnessFactor":0.3549019694328308
			}
		},
		{
			"doubleSided":true,
			"name":"Material.002",
			"pbrMetallicRoughness":{
				"baseColorFactor":[
					0.7067657113075256,
					0.16668769717216492,
					0.026354270055890083,
					1
				],
				"metallicFactor":0,
				"roughnessFactor":0.5
			}
		},
		{
			"doubleSided":true,
			"name":"Material.005",
			"pbrMetallicRoughness":{
				"baseColorFactor":[
					0.11488636583089828,
					0.1960364580154419,
					0.496316522359848,
					1
				],
				"metallicFactor":0,
				"roughnessFactor":0.5
			}
		},
		{
			"doubleSided":true,
			"name":"Material.006",
			"pbrMetallicRoughness":{}
		}
	],
	"meshes":[
		{
			"name":"Cube.002",
			"primitives":[
				{
					"attributes":{
						"POSITION":0,
						"NORMAL":1,
						"TEXCOORD_0":2
					},
					"indices":3,
					"material":0
				}
			]
		},
		{
			"name":"Cube.003",
			"primitives":[
				{
					"attributes":{
						"POSITION":4,
						"NORMAL":5,
						"TEXCOORD_0":6
					},
					"indices":7,
					"material":1
				}
			]
		},
		{
			"name":"Cylinder.001",
			"primitives":[
				{
					"attributes":{
						"POSITION":8,
						"NORMAL":9,
						"TEXCOORD_0":10
					},
					"indices":11,
					"material":2
				}
			]
		},
		{
			"name":"Cylinder.002",
			"primitives":[
				{
					"attributes":{
						"POSITION":12,
						"NORMAL":13,
						"TEXCOORD_0":14
					},
					"indices":15,
					"material":3
				}
			]
		},
		{
			"name":"Cube.004",
			"primitives":[
				{
					"attributes":{
						"POSITION":16,
						"NORMAL":17,
						"TEXCOORD_0":18
					},
					"indices":19,
					"material":1
				}
			]
		},
		{
			"name":"Cube.005",
			"primitives":[
				{
					"attributes":{
						"POSITION":20,
						"NORMAL":21,
						"TEXCOORD_0":22
					},
					"indices":19,
					"material":1
				}
			]
		},
		{
			"name":"Cube.006",
			"primitives":[
				{
					"attributes":{
						"POSITION":23,
						"NORMAL":24,
						"TEXCOORD_0":25
					},
					"indices":26,
					"material":2
				}
			]
		}
	],
	"accessors":[
		{
			"bufferView":0,
			"componentType":5126,
			"count":2025,
			"max":[
				0.8469088077545166,
				2.0808534622192383,
				0.8469088673591614
			],
			"min":[
				-0.8469088077545166,
				-1.6617075204849243,
				-0.8469088077545166
			],
			"type":"VEC3"
		},
		{
			"bufferView":1,
			"componentType":5126,
			"count":2025,
			"type":"VEC3"
		},
		{
			"bufferView":2,
			"componentType":5126,
			"count":2025,
			"type":"VEC2"
		},
		{
			"bufferView":3,
			"componentType":5123,
			"count":11520,
			"type":"SCALAR"
		},
		{
			"bufferView":4,
			"componentType":5126,
			"count":673,
			"max":[
				0.7055832743644714,
				2.130192756652832,
				0.7055832743644714
			],
			"min":[
				-0.7055832743644714,
				0.8116684556007385,
				-0.7055832743644714
			],
			"type":"VEC3"
		},
		{
			"bufferView":5,
			"componentType":5126,
			"count":673,
			"type":"VEC3"
		},
		{
			"bufferView":6,
			"componentType":5126,
			"count":673,
			"type":"VEC2"
		},
		{
			"bufferView":7,
			"componentType":5123,
			"count":3840,
			"type":"SCALAR"
		},
		{
			"bufferView":8,
			"componentType":5126,
			"count":43830,
			"max":[
				0.9935951828956604,
				1.0000001192092896,
				0.9935951828956604
			],
			"min":[
				-0.9935951828956604,
				0.021287238225340843,
				-0.9935951232910156
			],
			"type":"VEC3"
		},
		{
			"bufferView":9,
			"componentType":5126,
			"count":43830,
			"type":"VEC3"
		},
		{
			"bufferView":10,
			"componentType":5126,
			"count":43830,
			"type":"VEC2"
		},
		{
			"bufferView":11,
			"componentType":5123,
			"count":79872,
			"type":"SCALAR"
		},
		{
			"bufferView":12,
			"componentType":5126,
			"count":44992,
			"max":[
				0.7997822761535645,
				1.2526742219924927,
				0.7997822761535645
			],
			"min":[
				-0.7997822761535645,
				0.7972659468650818,
				-0.7997822761535645
			],
			"type":"VEC3"
		},
		{
			"bufferView":13,
			"componentType":5126,
			"count":44992,
			"type":"VEC3"
		},
		{
			"bufferView":14,
			"componentType":5126,
			"count":44992,
			"type":"VEC2"
		},
		{
			"bufferView":15,
			"componentType":5123,
			"count":67584,
			"type":"SCALAR"
		},
		{
			"bufferView":16,
			"componentType":5126,
			"count":112,
			"max":[
				6.749783515930176,
				1.143357515335083,
				1.3014827966690063
			],
			"min":[
				-1.6768879890441895,
				-2.9186363220214844,
				-1.0000026226043701
			],
			"type":"VEC3"
		},
		{
			"bufferView":17,
			"componentType":5126,
			"count":112,
			"type":"VEC3"
		},
		{
			"bufferView":18,
			"componentType":5126,
			"count":112,
			"type":"VEC2"
		},
		{
			"bufferView":19,
			"componentType":5123,
			"count":168,
			"type":"SCALAR"
		},
		{
			"bufferView":20,
			"componentType":5126,
			"count":112,
			"max":[
				4.213335990905762,
				1.7508831024169922,
				1.205572247505188
			],
			"min":[
				-4.213335990905762,
				-2.311110734939575,
				-1.0959131717681885
			],
			"type":"VEC3"
		},
		{
			"bufferView":21,
			"componentType":5126,
			"count":112,
			"type":"VEC3"
		},
		{
			"bufferView":22,
			"componentType":5126,
			"count":112,
			"type":"VEC2"
		},
		{
			"bufferView":23,
			"componentType":5126,
			"count":705,
			"max":[
				0.8851662278175354,
				1.1228529214859009,
				0.885166347026825
			],
			"min":[
				-0.8851660490036011,
				-1.4635894298553467,
				-0.885165810585022
			],
			"type":"VEC3"
		},
		{
			"bufferView":24,
			"componentType":5126,
			"count":705,
			"type":"VEC3"
		},
		{
			"bufferView":25,
			"componentType":5126,
			"count":705,
			"type":"VEC2"
		},
		{
			"bufferView":26,
			"componentType":5123,
			"count":3840,
			"type":"SCALAR"
		}
	],
	"bufferViews":[
		{
			"buffer":0,
			"byteLength":24300,
			"byteOffset":0,
			"target":34962
		},
		{
			"buffer":0,
			"byteLength":24300,
			"byteOffset":24300,
			"target":34962
		},
		{
			"buffer":0,
			"byteLength":16200,
			"byteOffset":48600,
			"target":34962
		},
		{
			"buffer":0,
			"byteLength":23040,
			"byteOffset":64800,
			"target":34963
		},
		{
			"buffer":0,
			"byteLength":8076,
			"byteOffset":87840,
			"target":34962
		},
		{
			"buffer":0,
			"byteLength":8076,
			"byteOffset":95916,
			"target":34962
		},
		{
			"buffer":0,
			"byteLength":5384,
			"byteOffset":103992,
			"target":34962
		},
		{
			"buffer":0,
			"byteLength":7680,
			"byteOffset":109376,
			"target":34963
		},
		{
			"buffer":0,
			"byteLength":525960,
			"byteOffset":117056,
			"target":34962
		},
		{
			"buffer":0,
			"byteLength":525960,
			"byteOffset":643016,
			"target":34962
		},
		{
			"buffer":0,
			"byteLength":350640,
			"byteOffset":1168976,
			"target":34962
		},
		{
			"buffer":0,
			"byteLength":159744,
			"byteOffset":1519616,
			"target":34963
		},
		{
			"buffer":0,
			"byteLength":539904,
			"byteOffset":1679360,
			"target":34962
		},
		{
			"buffer":0,
			"byteLength":539904,
			"byteOffset":2219264,
			"target":34962
		},
		{
			"buffer":0,
			"byteLength":359936,
			"byteOffset":2759168,
			"target":34962
		},
		{
			"buffer":0,
			"byteLength":135168,
			"byteOffset":3119104,
			"target":34963
		},
		{
			"buffer":0,
			"byteLength":1344,
			"byteOffset":3254272,
			"target":34962
		},
		{
			"buffer":0,
			"byteLength":1344,
			"byteOffset":3255616,
			"target":34962
		},
		{
			"buffer":0,
			"byteLength":896,
			"byteOffset":3256960,
			"target":34962
		},
		{
			"buffer":0,
			"byteLength":336,
			"byteOffset":3257856,
			"target":34963
		},
		{
			"buffer":0,
			"byteLength":1344,
			"byteOffset":3258192,
			"target":34962
		},
		{
			"buffer":0,
			"byteLength":1344,
			"byteOffset":3259536,
			"target":34962
		},
		{
			"buffer":0,
			"byteLength":896,
			"byteOffset":3260880,
			"target":34962
		},
		{
			"buffer":0,
			"byteLength":8460,
			"byteOffset":3261776,
			"target":34962
		},
		{
			"buffer":0,
			"byteLength":8460,
			"byteOffset":3270236,
			"target":34962
		},
		{
			"buffer":0,
			"byteLength":5640,
			"byteOffset":3278696,
			"target":34962
		},
		{
			"buffer":0,
			"byteLength":7680,
			"byteOffset":3284336,
			"target":34963
		}
	],
	"buffers":[
		{
			"byteLength":3292016,
			"uri":"rocket.bin"
		}
	]
}
