{
	"asset":{
		"generator":"Khronos glTF Blender I/O v4.0.44",
		"version":"2.0"
	},
	"scene":0,
	"scenes":[
		{
			"name":"Scene",
			"nodes":[
				0,
				1
			]
		}
	],
	"nodes":[
		{
			"mesh":0,
			"name":"Sphere",
			"scale":[
				2.240705966949463,
				2.240705966949463,
				2.240705966949463
			],
			"translation":[
				0,
				2.008460521697998,
				0
			]
		},
		{
			"mesh":1,
			"name":"Circle",
			"rotation":[
				0,
				0,
				-0.4831729531288147,
				0.8755249381065369
			],
			"scale":[
				3.7950074672698975,
				3.7950074672698975,
				3.7950074672698975
			],
			"translation":[
				0,
				2.008460521697998,
				0
			]
		}
	],
	"materials":[
		{
			"doubleSided":true,
			"name":"Material.001",
			"pbrMetallicRoughness":{
				"baseColorTexture":{
					"index":0
				},
				"metallicFactor":0.06818182021379471,
				"roughnessFactor":0.4318181872367859
			}
		},
		{
			"doubleSided":true,
			"name":"Material.002",
			"pbrMetallicRoughness":{
				"baseColorFactor":[
					1,
					1,
					1,
					0.1772727072238922
				],
				"baseColorTexture":{
					"index":1
				},
				"metallicFactor":0.3590908944606781,
				"roughnessFactor":0.4954545497894287
			}
		}
	],
	"meshes":[
		{
			"name":"Sphere",
			"primitives":[
				{
					"attributes":{
						"POSITION":0,
						"NORMAL":1,
						"TEXCOORD_0":2
					},
					"indices":3,
					"material":0
				}
			]
		},
		{
			"name":"Circle",
			"primitives":[
				{
					"attributes":{
						"POSITION":4,
						"NORMAL":5,
						"TEXCOORD_0":6
					},
					"indices":7,
					"material":1
				}
			]
		}
	],
	"textures":[
		{
			"sampler":0,
			"source":0
		},
		{
			"sampler":0,
			"source":1
		}
	],
	"images":[
		{
			"mimeType":"image/jpeg",
			"name":"2k_uranus",
			"uri":"textures/2k_uranus.jpg"
		},
		{
			"mimeType":"image/png",
			"name":"uranusringtrans",
			"uri":"textures/uranusringtrans.png"
		}
	],
	"accessors":[
		{
			"bufferView":0,
			"componentType":5126,
			"count":559,
			"max":[
				0.9999996423721313,
				1,
				0.9999993443489075
			],
			"min":[
				-0.9999991059303284,
				-1,
				-1
			],
			"type":"VEC3"
		},
		{
			"bufferView":1,
			"componentType":5126,
			"count":559,
			"type":"VEC3"
		},
		{
			"bufferView":2,
			"componentType":5126,
			"count":559,
			"type":"VEC2"
		},
		{
			"bufferView":3,
			"componentType":5123,
			"count":2880,
			"type":"SCALAR"
		},
		{
			"bufferView":4,
			"componentType":5126,
			"count":165,
			"max":[
				1,
				0,
				1
			],
			"min":[
				-1,
				0,
				-1
			],
			"type":"VEC3"
		},
		{
			"bufferView":5,
			"componentType":5126,
			"count":165,
			"type":"VEC3"
		},
		{
			"bufferView":6,
			"componentType":5126,
			"count":165,
			"type":"VEC2"
		},
		{
			"bufferView":7,
			"componentType":5123,
			"count":576,
			"type":"SCALAR"
		}
	],
	"bufferViews":[
		{
			"buffer":0,
			"byteLength":6708,
			"byteOffset":0,
			"target":34962
		},
		{
			"buffer":0,
			"byteLength":6708,
			"byteOffset":6708,
			"target":34962
		},
		{
			"buffer":0,
			"byteLength":4472,
			"byteOffset":13416,
			"target":34962
		},
		{
			"buffer":0,
			"byteLength":5760,
			"byteOffset":17888,
			"target":34963
		},
		{
			"buffer":0,
			"byteLength":1980,
			"byteOffset":23648,
			"target":34962
		},
		{
			"buffer":0,
			"byteLength":1980,
			"byteOffset":25628,
			"target":34962
		},
		{
			"buffer":0,
			"byteLength":1320,
			"byteOffset":27608,
			"target":34962
		},
		{
			"buffer":0,
			"byteLength":1152,
			"byteOffset":28928,
			"target":34963
		}
	],
	"samplers":[
		{
			"magFilter":9729,
			"minFilter":9987
		}
	],
	"buffers":[
		{
			"byteLength":30080,
			"uri":"uranus.bin"
		}
	]
}
